<svg width="30" height="52" viewBox="0 0 30 52" fill="none" xmlns="http://www.w3.org/2000/svg">
<path d="M1 13.579V37.47C1 42.0849 3.60735 46.3037 7.73501 48.3675C12.3084 50.6542 17.6916 50.6542 22.265 48.3675C26.3926 46.3037 29 42.0849 29 37.47V13.579C29 7.4084 24.6895 2.07631 18.6559 0.783401C16.246 0.266995 13.754 0.266995 11.3441 0.783401C5.31054 2.07631 1 7.4084 1 13.579Z" stroke="#F1F5F9"/>
<path d="M13 6.45622V9.41863C13 9.89515 13.2616 10.3332 13.6812 10.5591C14.1924 10.8344 14.8076 10.8344 15.3188 10.5591C15.7384 10.3332 16 9.89515 16 9.41863V6.45622C16 5.80644 15.5515 5.24265 14.9184 5.09654C14.6431 5.03302 14.3569 5.03302 14.0816 5.09654C13.4485 5.24265 13 5.80644 13 6.45622Z" stroke="#F1F5F9"/>
<path d="M14.5 5V0.5M14.5 11V19" stroke="#F1F5F9"/>
</svg>
